<svg preserveAspectRatio="none" width="100%" height="100%" overflow="visible" style="display: block;" viewBox="0 0 32 32" fill="none" xmlns="http://www.w3.org/2000/svg">
<g id="Box">
<path id="Shape" fill-rule="evenodd" clip-rule="evenodd" d="M10.3107 6.00275C10.3061 6.00696 10.1933 6.01487 10.0601 6.02034C9.65009 6.03713 9.17583 6.10929 8.72274 6.22381C8.54702 6.26824 8.12339 6.4011 8.02997 6.44112C8.0024 6.45292 7.89713 6.49506 7.79605 6.53477C7.69496 6.57447 7.49571 6.66499 7.35327 6.73594C6.0735 7.37328 4.99227 8.38289 4.20916 9.67174C4.02653 9.9723 3.73087 10.5697 3.59854 10.9056C3.14171 12.0651 2.95649 13.1975 3.00851 14.5131C3.05994 15.8142 3.34024 16.8865 3.92895 18.0343C4.28075 18.7202 4.68001 19.2938 5.19961 19.8596C5.31363 19.9838 5.50185 20.1948 5.61789 20.3286C6.37713 21.204 7.85967 22.7806 8.54794 23.4446C9.62432 24.4829 11.1437 25.8319 11.9147 26.4337C13.1845 27.4249 14.1295 27.8505 15.3456 27.979C15.6734 28.0136 16.5337 28.0037 16.8271 27.962C18.0449 27.7886 18.9989 27.3158 20.3524 26.2148C20.8616 25.8007 21.9597 24.8346 22.7666 24.091C23.7812 23.1559 25.5719 21.2733 26.6686 19.9885C27.1812 19.3879 27.2626 19.2878 27.443 19.0352C28.136 18.065 28.7146 16.736 28.8893 15.7129C28.923 15.5157 28.9605 15.1389 28.9563 15.0406C28.955 15.0103 28.9621 14.899 28.972 14.7932C29.0146 14.338 29.0078 13.6267 28.9566 13.188C28.9475 13.1099 28.936 13.0083 28.9312 12.9623C28.9098 12.7609 28.8174 12.2691 28.7483 11.989C28.4374 10.7287 27.8653 9.59717 27.0381 8.60653C26.8306 8.35804 26.3622 7.88939 26.1171 7.68511C25.774 7.39919 25.3832 7.12378 25.031 6.9197C24.8377 6.80767 24.3116 6.55376 24.1037 6.47208C23.763 6.3383 23.2913 6.19395 23.026 6.14235C23.003 6.13787 22.9278 6.12233 22.8589 6.1078C22.4654 6.02489 22.2881 6.01004 21.6308 6.00492C20.9438 5.99959 20.7871 6.0101 20.3359 6.09195C19.0638 6.32267 17.8766 6.903 16.8772 7.78268C16.6471 7.98518 16.2606 8.37673 16.0926 8.57737L15.9848 8.70622L15.934 8.64383C15.8207 8.50476 15.5831 8.25203 15.3798 8.05442C14.6228 7.31837 13.7396 6.76321 12.7643 6.41037C12.5792 6.34338 12.1395 6.21231 12.0317 6.19194C12.0087 6.18761 11.9222 6.16905 11.8395 6.15069C11.6358 6.1055 11.2808 6.05351 11.0375 6.03325C10.7826 6.01203 10.3217 5.99267 10.3107 6.00275ZM22.0296 8.54807C23.2526 8.69123 24.3906 9.34129 25.2089 10.3641C25.8854 11.2097 26.2884 12.1979 26.4285 13.3552C26.465 13.6564 26.4701 14.4154 26.4377 14.7263C26.3501 15.5683 26.2087 16.0666 25.861 16.7595C25.6181 17.2436 25.3836 17.6022 25.0806 17.9535C24.9973 18.05 24.8299 18.2456 24.7088 18.3882C23.7982 19.4595 22.1961 21.1543 21.2716 22.0243C20.4546 22.7931 19.1941 23.8999 18.5731 24.3936C17.8164 24.9953 17.2597 25.3023 16.7293 25.4104C16.3743 25.4827 15.803 25.494 15.4208 25.4363C14.6439 25.3189 14.0114 24.9299 12.5672 23.6816C11.5829 22.8307 10.7095 22.0293 10.042 21.3645C9.39063 20.7157 8.2535 19.4998 7.64161 18.7979C7.48129 18.6139 7.25369 18.3581 7.13584 18.2293C6.8821 17.9522 6.77124 17.8181 6.61754 17.6027C6.25132 17.0894 5.91666 16.3983 5.75091 15.8132C5.54364 15.0815 5.47651 14.1419 5.5735 13.3302C5.80169 11.4203 6.88782 9.80703 8.4811 9.0114C8.84669 8.82885 9.26365 8.68991 9.6744 8.61378C10.7748 8.40984 11.9449 8.65707 12.9089 9.29721C13.4909 9.6837 13.7071 9.90953 14.9726 11.4524C15.5284 12.1301 15.9883 12.6832 15.9943 12.6814C16.0004 12.6795 16.466 12.1137 17.029 11.424C18.2886 9.88097 18.4986 9.66004 19.0601 9.28716C19.6796 8.87581 20.4444 8.59604 21.0878 8.54546C21.1567 8.54004 21.2162 8.53275 21.22 8.52926C21.2389 8.51204 21.8414 8.52603 22.0296 8.54807Z" fill="var(--fill-0, white)"/>
</g>
</svg>
