<svg preserveAspectRatio="none" width="100%" height="100%" overflow="visible" style="display: block;" viewBox="0 0 32 32" fill="none" xmlns="http://www.w3.org/2000/svg">
<g id="Box">
<g id="Shape">
<path d="M20.106 10.8948C21.1424 10.8948 21.7826 9.77901 21.2493 8.902L21.0306 8.54228C18.7841 4.84731 17.6608 3 16 3C14.3392 3 13.2159 4.84731 10.9694 8.54227L10.7507 8.902C10.2174 9.77901 10.8576 10.8948 11.894 10.8948C12.3623 10.8948 12.7963 10.6523 13.0373 10.2559L13.256 9.89622C13.8153 8.97632 14.2731 8.22651 14.6657 7.61392V18.7895C14.6657 19.5162 15.2626 20.1053 15.999 20.1053C16.7354 20.1053 17.3324 19.5162 17.3324 18.7895V7.61088C17.7254 8.22403 18.1838 8.9748 18.744 9.89622L18.9627 10.2559C19.2037 10.6523 19.6377 10.8948 20.106 10.8948Z" fill="var(--fill-0, white)"/>
<path d="M9.35473 13.6801C9.95077 13.6224 10.6104 13.5719 11.3333 13.5264C12.0697 13.5264 12.6667 14.1155 12.6667 14.8421C12.6667 15.5688 12.0697 16.1579 11.3333 16.1579V16.1603C10.7072 16.2015 10.1343 16.2489 9.61478 16.2991C9.07151 16.3516 8.89449 16.3737 8.74279 16.41C8.65149 16.4319 8.51249 16.4725 8.21006 16.6333L8.20665 16.6357C8.19174 16.6461 8.14629 16.6776 8.06857 16.7395C7.94755 16.8358 7.80152 16.9631 7.65121 17.106C7.50091 17.2489 7.36655 17.3882 7.26447 17.5039C7.19892 17.5783 7.16528 17.6219 7.15424 17.6362L7.1516 17.6397C6.94871 17.9791 6.9085 18.1013 6.89794 18.1348C6.87992 18.192 6.8654 18.2529 6.80916 18.6615C6.72241 19.292 6.66667 19.9793 6.66667 20.7028C6.66667 21.4252 6.72225 22.1102 6.80869 22.7374C6.86415 23.1399 6.878 23.1955 6.89473 23.2483C6.90466 23.2796 6.94464 23.401 7.14851 23.7421L7.15105 23.7454C7.16212 23.7597 7.1957 23.8033 7.26107 23.8773C7.36331 23.9932 7.49797 24.1328 7.64858 24.276C7.79919 24.4192 7.94549 24.5468 8.06665 24.6433C8.14417 24.7051 8.18948 24.7366 8.20437 24.7469L8.20759 24.7492C8.51093 24.9105 8.64924 24.9509 8.73835 24.9723C8.88705 25.0081 9.06029 25.0299 9.59929 25.0821C11.216 25.239 13.3522 25.3684 16 25.3684C18.643 25.3684 20.7764 25.2395 22.3922 25.083C22.9337 25.0306 23.1091 25.0086 23.2595 24.9726C23.3498 24.9509 23.4886 24.9103 23.7914 24.7493L23.7948 24.7469C23.8098 24.7365 23.8552 24.7049 23.9327 24.6432C24.0538 24.5468 24.1999 24.4193 24.3504 24.2762C24.5008 24.1332 24.6353 23.9938 24.7375 23.8779C24.803 23.8036 24.8366 23.76 24.8476 23.7457L24.8502 23.7424C25.0535 23.4021 25.0936 23.2803 25.1039 23.2477C25.1213 23.1925 25.1355 23.134 25.1914 22.728C25.2778 22.0995 25.3333 21.4138 25.3333 20.6914C25.3333 19.969 25.2778 19.2833 25.1914 18.6548C25.1356 18.2489 25.1213 18.1903 25.1039 18.135C25.0936 18.1025 25.0535 17.9807 24.8502 17.6404L24.8476 17.637C24.8366 17.6227 24.803 17.5791 24.7375 17.5048C24.6353 17.389 24.5008 17.2496 24.3504 17.1065C24.1999 16.9634 24.0538 16.836 23.9327 16.7395C23.855 16.6777 23.8096 16.6462 23.7947 16.6358L23.7914 16.6335C23.4886 16.4724 23.3498 16.4319 23.2595 16.4102C23.109 16.3741 22.9336 16.3522 22.3921 16.2998C21.8707 16.2493 21.2955 16.2017 20.6667 16.1603V16.1579C19.9303 16.1579 19.3333 15.5688 19.3333 14.8421C19.3333 14.1155 19.9303 13.5264 20.6667 13.5264C21.3925 13.5721 22.0545 13.6228 22.6525 13.6807C23.646 13.7769 24.1427 13.825 25.0954 14.3377C25.6679 14.6458 26.7933 15.716 27.1266 16.2692C27.681 17.1897 27.732 17.5601 27.8338 18.301C27.9344 19.0323 28 19.8368 28 20.6914C28 21.546 27.9344 22.3506 27.8338 23.0819C27.7319 23.8227 27.681 24.1931 27.1266 25.1136C26.7934 25.6668 25.6679 26.737 25.0954 27.045C24.1428 27.5577 23.6461 27.6058 22.6526 27.702C20.9514 27.8667 18.7311 28 16 28C13.264 28 11.0407 27.8663 9.3384 27.7011C8.34975 27.6052 7.85543 27.5572 6.90313 27.0447C6.33178 26.7372 5.20519 25.666 4.87258 25.114C4.31819 24.1939 4.26757 23.8266 4.16635 23.092C4.06569 22.3616 4 21.5575 4 20.7028C4 19.8469 4.06587 19.0405 4.16675 18.3074C4.26935 17.5618 4.32065 17.189 4.87522 16.2685C5.20894 15.7146 6.33333 14.6457 6.90665 14.3372C7.85941 13.8247 8.35785 13.7765 9.35473 13.6801Z" fill="var(--fill-0, white)"/>
</g>
</g>
</svg>
